<mxfile host="drawio-plugin" modified="2024-05-31T11:40:16.731Z" agent="5.0 (Macintosh; Intel Mac OS X 10_15_7) AppleWebKit/537.36 (KHTML, like Gecko) Chrome/104.0.5112.102 Safari/537.36" version="20.5.3" etag="pc5caiyF1O0iDmLXYw5H" type="embed"><diagram id="v-q27QKJw0_lDGfotQkc" name="General"><mxGraphModel dx="219" dy="138" grid="1" gridSize="10" guides="1" tooltips="1" connect="1" arrows="1" fold="1" page="1" pageScale="1" pageWidth="827" pageHeight="1169" math="0" shadow="0"><root><mxCell id="0"/><mxCell id="1" parent="0"/><mxCell id="95" style="edgeStyle=orthogonalEdgeStyle;rounded=0;orthogonalLoop=1;jettySize=auto;html=1;entryX=0.5;entryY=0;entryDx=0;entryDy=0;" edge="1" parent="1" source="2" target="3"><mxGeometry relative="1" as="geometry"/></mxCell><mxCell id="2" value="Start" style="shape=ellipse;whiteSpace=wrap;html=1;" vertex="1" parent="1"><mxGeometry x="374" width="80" height="40" as="geometry"/></mxCell><mxCell id="94" style="edgeStyle=orthogonalEdgeStyle;rounded=0;orthogonalLoop=1;jettySize=auto;html=1;entryX=0.5;entryY=0;entryDx=0;entryDy=0;" edge="1" parent="1" source="3" target="4"><mxGeometry relative="1" as="geometry"/></mxCell><mxCell id="3" value="Generate Ship" style="rounded=1;whiteSpace=wrap;html=1;" vertex="1" parent="1"><mxGeometry x="364" y="70" width="100" height="40" as="geometry"/></mxCell><mxCell id="90" style="edgeStyle=orthogonalEdgeStyle;rounded=0;orthogonalLoop=1;jettySize=auto;html=1;entryX=0.5;entryY=0;entryDx=0;entryDy=0;" edge="1" parent="1" source="4" target="6"><mxGeometry relative="1" as="geometry"/></mxCell><mxCell id="91" style="edgeStyle=orthogonalEdgeStyle;rounded=0;orthogonalLoop=1;jettySize=auto;html=1;" edge="1" parent="1" source="4" target="5"><mxGeometry relative="1" as="geometry"><Array as="points"><mxPoint x="414" y="210"/><mxPoint x="269" y="210"/></Array></mxGeometry></mxCell><mxCell id="93" style="edgeStyle=orthogonalEdgeStyle;rounded=0;orthogonalLoop=1;jettySize=auto;html=1;" edge="1" parent="1" source="4" target="7"><mxGeometry relative="1" as="geometry"><Array as="points"><mxPoint x="414" y="210"/><mxPoint x="559" y="210"/></Array></mxGeometry></mxCell><mxCell id="4" value="Ship Type?" style="shape=rhombus;whiteSpace=wrap;html=1;" vertex="1" parent="1"><mxGeometry x="364" y="130" width="100" height="60" as="geometry"/></mxCell><mxCell id="87" style="edgeStyle=orthogonalEdgeStyle;rounded=0;orthogonalLoop=1;jettySize=auto;html=1;exitX=0.5;exitY=1;exitDx=0;exitDy=0;" edge="1" parent="1" source="5" target="8"><mxGeometry relative="1" as="geometry"/></mxCell><mxCell id="5" value="Bread" style="rounded=1;whiteSpace=wrap;html=1;" vertex="1" parent="1"><mxGeometry x="229" y="240" width="80" height="40" as="geometry"/></mxCell><mxCell id="88" style="edgeStyle=orthogonalEdgeStyle;rounded=0;orthogonalLoop=1;jettySize=auto;html=1;entryX=0.5;entryY=0;entryDx=0;entryDy=0;" edge="1" parent="1" source="6" target="8"><mxGeometry relative="1" as="geometry"/></mxCell><mxCell id="6" value="Bananas" style="rounded=1;whiteSpace=wrap;html=1;" vertex="1" parent="1"><mxGeometry x="374" y="240" width="80" height="40" as="geometry"/></mxCell><mxCell id="89" style="edgeStyle=orthogonalEdgeStyle;rounded=0;orthogonalLoop=1;jettySize=auto;html=1;entryX=0.5;entryY=0;entryDx=0;entryDy=0;" edge="1" parent="1" source="7" target="8"><mxGeometry relative="1" as="geometry"><Array as="points"><mxPoint x="559" y="300"/><mxPoint x="414" y="300"/></Array></mxGeometry></mxCell><mxCell id="7" value="Clothes" style="rounded=1;whiteSpace=wrap;html=1;" vertex="1" parent="1"><mxGeometry x="519" y="240" width="80" height="40" as="geometry"/></mxCell><mxCell id="84" style="edgeStyle=orthogonalEdgeStyle;rounded=0;orthogonalLoop=1;jettySize=auto;html=1;entryX=0.5;entryY=0;entryDx=0;entryDy=0;exitX=0.5;exitY=1;exitDx=0;exitDy=0;" edge="1" parent="1" source="8" target="9"><mxGeometry relative="1" as="geometry"/></mxCell><mxCell id="85" style="edgeStyle=orthogonalEdgeStyle;rounded=0;orthogonalLoop=1;jettySize=auto;html=1;entryX=0.5;entryY=0;entryDx=0;entryDy=0;" edge="1" parent="1" source="8" target="10"><mxGeometry relative="1" as="geometry"/></mxCell><mxCell id="86" style="edgeStyle=orthogonalEdgeStyle;rounded=0;orthogonalLoop=1;jettySize=auto;html=1;entryX=0.5;entryY=0;entryDx=0;entryDy=0;exitX=0.5;exitY=1;exitDx=0;exitDy=0;" edge="1" parent="1" source="8" target="11"><mxGeometry relative="1" as="geometry"><mxPoint x="420" y="400" as="sourcePoint"/></mxGeometry></mxCell><mxCell id="8" value="Ship Capacity?" style="shape=rhombus;whiteSpace=wrap;html=1;" vertex="1" parent="1"><mxGeometry x="355" y="320" width="118" height="80" as="geometry"/></mxCell><mxCell id="81" style="edgeStyle=orthogonalEdgeStyle;rounded=0;orthogonalLoop=1;jettySize=auto;html=1;" edge="1" parent="1" source="9" target="12"><mxGeometry relative="1" as="geometry"/></mxCell><mxCell id="9" value="10 units" style="rounded=1;whiteSpace=wrap;html=1;" vertex="1" parent="1"><mxGeometry x="229" y="440" width="80" height="40" as="geometry"/></mxCell><mxCell id="82" style="edgeStyle=orthogonalEdgeStyle;rounded=0;orthogonalLoop=1;jettySize=auto;html=1;entryX=0.5;entryY=0;entryDx=0;entryDy=0;" edge="1" parent="1" source="10" target="12"><mxGeometry relative="1" as="geometry"/></mxCell><mxCell id="10" value="50 units" style="rounded=1;whiteSpace=wrap;html=1;" vertex="1" parent="1"><mxGeometry x="374" y="440" width="80" height="40" as="geometry"/></mxCell><mxCell id="83" style="edgeStyle=orthogonalEdgeStyle;rounded=0;orthogonalLoop=1;jettySize=auto;html=1;entryX=0.5;entryY=0;entryDx=0;entryDy=0;" edge="1" parent="1" source="11" target="12"><mxGeometry relative="1" as="geometry"/></mxCell><mxCell id="11" value="100 units" style="rounded=1;whiteSpace=wrap;html=1;" vertex="1" parent="1"><mxGeometry x="519" y="440" width="80" height="40" as="geometry"/></mxCell><mxCell id="98" style="edgeStyle=orthogonalEdgeStyle;rounded=0;orthogonalLoop=1;jettySize=auto;html=1;entryX=0.5;entryY=0;entryDx=0;entryDy=0;exitX=1;exitY=0.5;exitDx=0;exitDy=0;" edge="1" parent="1" source="12" target="14"><mxGeometry relative="1" as="geometry"><Array as="points"><mxPoint x="560" y="580"/><mxPoint x="560" y="700"/><mxPoint x="414" y="700"/><mxPoint x="414" y="731"/></Array></mxGeometry></mxCell><mxCell id="12" value="Tunnel Capacity Reached?" style="shape=rhombus;whiteSpace=wrap;html=1;" vertex="1" parent="1"><mxGeometry x="309" y="540" width="210" height="80" as="geometry"/></mxCell><mxCell id="79" style="edgeStyle=orthogonalEdgeStyle;rounded=0;orthogonalLoop=1;jettySize=auto;html=1;exitX=0.5;exitY=1;exitDx=0;exitDy=0;" edge="1" parent="1" source="13"><mxGeometry relative="1" as="geometry"><mxPoint x="410" y="520" as="targetPoint"/><Array as="points"><mxPoint x="414" y="690"/><mxPoint x="270" y="690"/><mxPoint x="270" y="520"/></Array></mxGeometry></mxCell><mxCell id="13" value="Wait until a berth is free" style="rounded=1;whiteSpace=wrap;html=1;" vertex="1" parent="1"><mxGeometry x="334" y="640" width="160" height="40" as="geometry"/></mxCell><mxCell id="101" style="edgeStyle=orthogonalEdgeStyle;rounded=0;orthogonalLoop=1;jettySize=auto;html=1;entryX=0.494;entryY=0.003;entryDx=0;entryDy=0;entryPerimeter=0;" edge="1" parent="1" source="14" target="15"><mxGeometry relative="1" as="geometry"/></mxCell><mxCell id="14" value="Berth Available for Loading?" style="shape=rhombus;whiteSpace=wrap;html=1;" vertex="1" parent="1"><mxGeometry x="338" y="731" width="151" height="100" as="geometry"/></mxCell><mxCell id="102" style="edgeStyle=orthogonalEdgeStyle;rounded=0;orthogonalLoop=1;jettySize=auto;html=1;entryX=0.5;entryY=0;entryDx=0;entryDy=0;" edge="1" parent="1" source="15" target="16"><mxGeometry relative="1" as="geometry"/></mxCell><mxCell id="15" value="Load Ship" style="rounded=1;whiteSpace=wrap;html=1;" vertex="1" parent="1"><mxGeometry x="374" y="857" width="80" height="40" as="geometry"/></mxCell><mxCell id="103" style="edgeStyle=orthogonalEdgeStyle;rounded=0;orthogonalLoop=1;jettySize=auto;html=1;" edge="1" parent="1" source="16" target="99"><mxGeometry relative="1" as="geometry"/></mxCell><mxCell id="16" value="Ship Leaves Tunnel" style="rounded=1;whiteSpace=wrap;html=1;" vertex="1" parent="1"><mxGeometry x="364" y="930" width="100" height="40" as="geometry"/></mxCell><mxCell id="17" value="End" style="shape=ellipse;whiteSpace=wrap;html=1;" vertex="1" parent="1"><mxGeometry x="374" y="1090" width="80" height="40" as="geometry"/></mxCell><mxCell id="28" edge="1" parent="1" source="12" target="13"><mxGeometry relative="1" as="geometry"/></mxCell><mxCell id="100" style="edgeStyle=orthogonalEdgeStyle;rounded=0;orthogonalLoop=1;jettySize=auto;html=1;entryX=0.5;entryY=0;entryDx=0;entryDy=0;exitX=0;exitY=0.5;exitDx=0;exitDy=0;" edge="1" parent="1" source="99" target="17"><mxGeometry relative="1" as="geometry"/></mxCell><mxCell id="105" style="edgeStyle=orthogonalEdgeStyle;rounded=0;orthogonalLoop=1;jettySize=auto;html=1;" edge="1" parent="1" source="99"><mxGeometry relative="1" as="geometry"><mxPoint x="420" y="50" as="targetPoint"/><Array as="points"><mxPoint x="660" y="1015"/><mxPoint x="660" y="50"/><mxPoint x="464" y="50"/></Array></mxGeometry></mxCell><mxCell id="99" value="Continue work?" style="shape=rhombus;whiteSpace=wrap;html=1;" vertex="1" parent="1"><mxGeometry x="338.5" y="990" width="151" height="50" as="geometry"/></mxCell></root></mxGraphModel></diagram></mxfile>